PathFileType	4	(X/Y/Z)	C:/Users/beibeiliu/ov580/test_trc/User1\sequence.11_training_dense_right.trc
DataRate	CameraRate	NumFrames	NumMarkers	Units	OrigDataRate	OrigDataStartFrame	OrigNumFrames
120	120	18	19	mm	120	171	341
Frame#	Time	ThumbCMC			ThumbMCP			ThumbIP			ThumbTip			IndexMCP			IndexPIP			IndexTip			MiddleMCP			MiddlePIP			MiddleTip			RingMCP			RingPIP			RingTip			PinkyMCP			PinkyPIP			PinkyTip			BackHand1			BackHand2			BackHand3	
		X0	Y0	Z0	X1	Y1	Z1	X2	Y2	Z2	X3	Y3	Z3	X4	Y4	Z4	X5	Y5	Z5	X6	Y6	Z6	X7	Y7	Z7	X8	Y8	Z8	X9	Y9	Z9	X10	Y10	Z10	X11	Y11	Z11	X12	Y12	Z12	X13	Y13	Z13	X14	Y14	Z14	X15	Y15	Z15	X16	Y16	Z16	X17	Y17	Z17	X18	Y18	Z18	
170	1.41667	127.143	105.314	34.6488	119.625	80.9311	1.34097	132.508	73.1217	-28.0012	153.721	63.9857	-38.5534	144.75	142.169	-34.5175	145.636	145.211	-59.1452	148.154	149.057	-90.357	181.471	141.253	-36.8176	186.638	147.986	-66.8879	199.414	151.016	-92.8839	188.319	108.24	-39.2068	178.274	79.2272	-49.5924	164.613	68.4383	-16.8632	199.844	84.5354	-19.8679	176.083	65.9199	-16.1349	159.575	74.9982	11.8125	192.853	125.152	19.4582	188.95	122.511	56.4138	159.32	132.589	39.6348	
171	1.425	124.896	106.874	33.9074	122.921	84.4033	3.1802	135.897	76.4344	-25.7002	155.111	65.6664	-40.3042	145.336	145.753	-35.8246	147.302	149.223	-61.0582	149.357	151.894	-88.0212	182.601	144.265	-39.5779	191.568	147.985	-65.7058	201.396	152.462	-92.5423	192.878	108.941	-37.7432	175.568	79.8562	-49.3074	164.566	68.8751	-17.2931	199.981	84.5747	-22.0409	178.94	67.0711	-19.612	158.537	77.8695	9.5046	191.696	126.784	21.6021	191.662	122.338	54.4711	156.809	136.85	39.8813	
172	1.43333	128.717	109.479	34.1578	123.167	86.5726	1.94178	131.504	76.3327	-28.1501	154.648	67.3605	-43.3881	145.787	148.988	-33.1258	145.563	153.611	-61.3866	150.7	157.482	-88.2697	181.147	147.227	-38.5116	188.589	151.679	-67.8921	200.777	150.06	-93.0884	191.081	110.265	-40.8244	179.195	82.8784	-51.8628	160.632	71.3318	-24.0451	203.938	86.0114	-18.7525	177.085	66.8985	-18.739	159.15	81.8935	5.74055	194.342	127.205	20.3052	192.086	122.671	54.4413	163.385	137.286	39.9612	
173	1.44167	130.966	113.206	36.5163	123.587	91.0133	3.74328	127.309	80.7049	-26.7133	147.315	67.8773	-46.2281	147.925	154.368	-35.0051	151.185	157.887	-58.846	156.81	160.203	-86.1689	186.051	148.12	-37.8939	189.787	151.881	-67.6077	196.507	144.532	-99.393	191.334	112.381	-39.3363	174.2	86.0527	-52.2481	158.74	71.2777	-23.8216	202.531	87.6643	-19.9288	176.346	72.6558	-22.667	155.535	82.4827	3.45484	195.323	126.658	22.4603	196.179	123.41	57.2014	161.545	141.103	39.4139	
174	1.45	130.425	116.511	38.9433	122.985	95.0513	2.88491	123.468	84.578	-20.6394	133.976	70.0482	-46.1305	150.972	158.399	-32.8714	151.44	162.758	-57.3954	157.175	165.697	-86.3282	187.158	148.374	-36.3812	188.848	147.095	-67.7208	182.902	132.131	-100.434	191.71	114.49	-39.0432	171.766	84.6424	-50.6525	158.757	70.592	-24.0601	200.039	90.1694	-21.684	175.552	74.5247	-21.8575	157.133	86.3836	4.54896	198.758	130.688	22.2701	199.971	121.758	57.4212	166.236	141.151	41.945	
175	1.45833	131.672	118.728	38.5291	122.504	97.3399	5.03919	118.077	88.588	-21.1681	125.938	76.5272	-41.0416	153.341	160.695	-28.6299	153.913	167.74	-55.3978	154.464	170.913	-84.5567	183.312	149.944	-37.7915	180.31	139.349	-74.5178	170.279	110.869	-88.1324	190.486	115.223	-39.7063	170.671	88.9942	-49.3004	157.937	75.4618	-26.0105	199.216	91.0439	-23.6584	173.666	79.4856	-21.0091	157.076	84.8973	5.26209	202.221	130.427	25.0546	197.45	122.823	58.5407	169.521	144.739	41.9614	
176	1.46667	132.628	119.483	39.8769	122.901	99.7635	6.88766	116.056	91.3076	-20.8793	122.323	80.7767	-41.9436	155.464	163.433	-29.1853	152.598	171.632	-54.148	154.347	173.379	-79.6411	181.326	146.12	-42.8395	170.159	127.363	-70.1738	153.611	94.3046	-65.3316	186.475	118.025	-39.7559	170.154	93.2263	-47.8874	156.386	75.9219	-18.2864	200.014	96.0591	-22.3857	177.21	77.8646	-20.1818	160.85	86.4446	6.83452	200.671	132.638	20.8889	199.214	124.945	59.779	167.807	143.686	42.3303	
177	1.475	130.15	119.387	41.4393	120.244	99.055	8.39478	119.868	94.4187	-20.8403	114.897	80.946	-42.8473	150.865	166.637	-27.903	156.026	171.737	-56.0252	157.251	173.96	-79.9206	176.476	141.9	-39.9084	157.909	116.07	-62.4693	143.391	86.8846	-38.8934	189.677	115.339	-36.181	169.927	88.5974	-42.7023	155.313	77.3755	-13.6797	202.34	96.8628	-19.4018	176.01	84.2746	-20.9892	162.535	97.3467	7.80285	199.227	134.784	26.6901	200.189	126.164	60.6801	166.237	146.351	45.8096	
178	1.48333	131.712	119.353	42.0211	120.967	100.304	4.88596	115.034	93.0331	-20.9564	117.131	82.8205	-44.5599	149.555	164.321	-25.4584	154.278	171.045	-52.4763	157.5	175.21	-80.2014	169.769	137.938	-39.9674	154.737	109.863	-55.5363	143.608	86.3523	-20.9074	183.138	115.106	-36.6219	169.392	86.0263	-37.4581	157.094	76.8371	-8.28842	200.095	101.76	-19.3279	174.218	86.9604	-18.6337	161.251	99.0006	8.74527	196.806	136.004	23.9574	199.588	128.812	58.1609	166.7	144.793	43.1429	
179	1.49167	129.07	120.121	38.8699	121.246	100.178	6.98623	119.682	92.9257	-17.9158	123.574	83.4385	-43.2191	151.883	164.362	-30.7998	149.731	170.629	-53.9837	159.467	172.1	-76.7807	167.118	136.231	-40.1154	155.54	104.266	-51.6682	146.865	85.9635	-17.1019	184.277	112.436	-35.124	162.772	85.1678	-34.0439	154.495	77.2956	-1.9552	195.09	98.8641	-21.2295	171.899	87.8136	-16.8208	161.216	104.07	11.6474	197.6	135.513	23.8927	198.084	127.19	59.1319	163.904	146.014	43.9795	
180	1.5	129.836	118.757	40.6553	117.859	98.1348	9.32453	120.174	92.4679	-21.0999	123.855	79.8276	-45.4695	149.964	160.876	-26.3728	152.584	168.819	-54.7877	155.34	175.473	-77.9345	164.004	132.607	-41.6251	149.728	102.58	-49.2607	146.074	86.2187	-13.2315	178.074	113.894	-33.5984	161.344	80.578	-30.4489	153.484	75.155	-2.1286	196.742	99.3453	-18.7788	169.415	85.1897	-14.2018	161.818	102.067	13.2135	198.162	136.498	20.1553	197.407	128.203	60.8557	163.547	146.023	44.647	
181	1.50833	128.548	118.523	38.9046	117.642	97.6534	6.80091	118.564	89.065	-18.4015	128.854	78.0759	-42.5494	146.86	160.219	-28.3455	149.535	166.984	-55.6324	154.31	172.39	-77.228	165.917	131.067	-40.4191	150.039	99.2282	-48.9951	141.654	86.1466	-11.5907	182.102	108.762	-33.4106	162.15	78.4571	-30.0556	149.844	75.4063	-0.649585	195.102	92.5907	-19.9111	168.927	83.074	-12.2606	159.364	98.2753	11.9872	193.301	135.075	23.6684	194.846	128.662	57.5868	163.705	142.526	43.2383	
182	1.51667	125.78	117.794	40.0511	117.681	95.1562	10.299	118.041	86.5975	-23.5442	132.013	73.8083	-44.3619	146.259	159.017	-32.5658	150.087	163.621	-55.2389	155.578	168.535	-76.7127	163.876	128.605	-40.1374	151.804	96.6481	-49.7271	140.075	84.5252	-10.0351	178.499	107.948	-32.8532	159.889	75.0184	-29.6466	153.412	71.647	3.32252	193.719	89.6774	-21.4314	168.746	79.6501	-11.9486	159.724	93.8708	12.712	194.642	134.117	19.6083	196.953	124.133	58.3735	162.496	144.863	42.6008	
183	1.525	128.927	114.962	40.1237	117.944	92.2207	7.60581	117.156	82.7432	-20.2513	132.588	69.288	-43.1999	148.575	152.349	-29.1599	146.228	159.14	-54.5477	150.94	166.703	-75.6594	166.245	122.33	-41.5664	149.794	89.9507	-48.3511	144.436	81.3834	-9.6278	177.676	98.9772	-35.6874	158.039	71.2387	-27.2397	150.917	69.9726	3.27147	196.665	86.2939	-17.7936	170.284	72.3683	-10.517	162.451	93.3006	15.8619	195.051	130.294	20.2823	195.74	122.602	58.6487	161.189	141.896	40.041	
184	1.53333	125.547	112.35	37.6349	119.106	89.9023	6.38648	118.834	78.8531	-21.2602	134.607	67.1582	-40.3463	144	149.026	-32.9038	146.512	155.155	-57.5088	152.93	161.259	-77.0645	164.35	116.901	-43.9438	152.286	86.8186	-48.9136	142.935	77.0937	-8.0258	177.609	97.3247	-32.6984	157.18	68.8405	-28.0376	152.421	65.3546	5.3466	194.176	85.7724	-17.6955	171.301	66.2579	-8.81294	163.508	84.5811	17.7132	191.59	126.393	20.6572	191.376	123.492	55.6936	160.203	136.991	39.8105	
185	1.54167	126.372	107.256	40.2928	115.058	83.321	9.73745	120.758	74.6667	-17.9695	135.126	61.5497	-40.2411	143.611	144.378	-35.2163	144.803	149.379	-55.3133	153.215	157.929	-81.8841	159.065	112.797	-45.5684	149.539	79.5182	-45.5342	143.778	73.5108	-9.96822	176.191	89.7746	-34.3878	162.674	63.8707	-28.6886	150.173	61.3958	4.3396	194.013	83.4498	-17.4559	169.621	65.7691	-7.94242	163.605	81.546	17.4157	190.506	124.649	17.8658	191.764	118.491	58.819	157.817	134.63	41.2105	
186	1.55	125.527	103.709	41.4441	115.458	79.9683	8.58688	121.241	71.3029	-20.2574	134.95	57.4505	-40.6808	141.631	139.408	-32.3285	142.878	144.899	-58.5743	150.724	151.817	-81.661	159.85	110.048	-42.8041	147.823	77.3784	-48.136	143.238	70.6235	-5.20723	178.439	86.4337	-34.3388	162.72	59.9946	-26.8704	151.323	57.5978	4.53528	195.774	74.75	-17.7681	170.182	64.4274	-8.28181	161.471	80.8255	16.2702	189.758	121.607	20.3082	192.771	118.664	57.0423	157.439	133.829	35.6975	
187	1.55833	125.303	101.633	42.0281	118.069	78.4789	8.33841	117.905	66.1297	-17.2929	132.315	52.0631	-40.1248	144.869	135.542	-32.5585	141.994	143.38	-60.3697	151.285	147.843	-80.87	160.632	105.031	-42.5386	144.759	71.5396	-43.2705	144.046	68.8338	-4.29039	176.034	83.8446	-34.5436	159.473	58.363	-27.7559	150.769	55.6485	7.77907	193.879	70.2419	-17.5999	170.244	57.2679	-3.94629	162.432	78.6544	21.2817	193.524	118.793	20.5937	191.539	117.4	54.1721	157.38	130.388	35.3789	
